<svg version="1.1" id="Layer_1" xmlns="http://www.w3.org/2000/svg" x="0" y="0" viewBox="0 0 556 126" xml:space="preserve"><style>.st0{fill:#0069b1}</style><path class="st0" d="M151.4 71.8V74c0 .8 0 1.5-.1 2.2H98.4c.1 2.8.7 5.4 1.9 7.9s2.7 4.6 4.7 6.4 4.2 3.2 6.8 4.3c2.6 1 5.3 1.5 8.2 1.5 4.5 0 8.4-1 11.7-2.9 3.3-2 5.8-4.4 7.7-7.2l9.3 7.4c-3.6 4.7-7.7 8.2-12.6 10.4-4.8 2.2-10.2 3.3-16.1 3.3-5.1 0-9.7-.8-14-2.5s-8-4-11.1-7.1c-3.1-3-5.5-6.7-7.3-11s-2.7-9.1-2.7-14.3c0-5.1.9-9.9 2.6-14.3s4.2-8.1 7.2-11.2c3.1-3.1 6.8-5.5 11-7.2s8.8-2.6 13.6-2.6c4.9 0 9.3.8 13.3 2.4 4 1.6 7.4 3.9 10.1 6.9 2.8 3 4.9 6.6 6.4 10.9 1.6 4.4 2.3 9.2 2.3 14.5zM138 66.5c-.1-2.6-.5-5.1-1.3-7.4-.8-2.3-2-4.3-3.5-6s-3.5-3-5.8-4-5-1.5-8.1-1.5c-2.8 0-5.5.5-7.9 1.5-2.5 1-4.6 2.3-6.5 4-1.8 1.7-3.3 3.7-4.5 6s-1.9 4.8-2 7.4H138zM284.7 39.1l-15.1 51.3-16.3-51.3h-13.9l-16 51.3-15.2-51.3h-14.3l22.2 66.6h13.7l16.3-50h.3l16.4 50h13.8l22-66.6zM369.1 72.2c0 5.2-.9 9.9-2.7 14.2-1.8 4.3-4.4 8-7.6 11.2-3.2 3.1-7 5.6-11.4 7.3s-9.1 2.6-14.2 2.6-9.8-.9-14.2-2.6c-4.4-1.7-8.2-4.2-11.4-7.3-3.2-3.1-5.7-6.9-7.5-11.2s-2.7-9-2.7-14.2c0-5.1.9-9.9 2.7-14.1 1.8-4.3 4.3-7.9 7.5-11s7-5.5 11.4-7.2 9.1-2.6 14.2-2.6 9.8.9 14.2 2.6c4.4 1.7 8.2 4.1 11.4 7.2 3.2 3.1 5.8 6.8 7.6 11 1.8 4.3 2.7 9 2.7 14.1zm-13.8.1c0-3.2-.5-6.2-1.5-9.1-1-2.9-2.4-5.4-4.3-7.6-1.9-2.2-4.2-3.9-7-5.3-2.8-1.3-5.9-2-9.5-2s-6.7.7-9.5 2-5.1 3.1-7 5.3-3.3 4.7-4.3 7.6-1.5 5.9-1.5 9.1.5 6.2 1.5 9.1c1 2.9 2.4 5.5 4.3 7.7s4.2 4 7 5.3 5.9 2 9.5 2 6.7-.7 9.5-2 5.1-3.1 7-5.3 3.3-4.8 4.3-7.7c1.1-2.9 1.5-5.9 1.5-9.1zM419.9 18.5h13.2v87.2h-13.2zM188.6 49.2V39.1H172V18.5h-13.1V86c0 6.9 1.7 12.1 5 15.6s8.1 5.2 14.4 5.2c2.1 0 4-.2 6-.5 1.6-.3 3-.6 4.3-1.1V94.3c-1 .4-2.1.7-3.3 1-1.4.3-2.7.4-3.9.4-3.3 0-5.7-.9-7.2-2.6s-2.2-4.6-2.2-8.6V49.2h16.6zM408.7 37.3c-4.5 0-8.5 1.2-12.1 3.6-3.6 2.4-6.8 5.5-8.6 9.5V39.1h-12.5v66.6h13.2v-35c0-2.8.4-5.5 1.1-8.1.7-2.6 1.9-4.8 3.4-6.8s3.5-3.5 5.8-4.7 5.1-1.8 8.3-1.8c2.1 0 4.1.2 6 .7V37.7c-1.3-.3-2.8-.4-4.6-.4zM76.5 53.8c-1-3.3-2.5-6.1-4.6-8.6-2.1-2.4-4.6-4.4-7.7-5.8-3.1-1.4-6.8-2.2-11.1-2.2-2.4 0-4.8.3-7 1s-4.3 1.6-6.2 2.7c-1.9 1.2-3.5 2.5-5 4.1-1.5 1.5-3 3.2-3.9 5V39.1H18.6v66.6h13.2V70.3c0-6.6 1.7-12 5-15.9 3.3-4 7.6-6 12.8-6 3.1 0 5.6.6 7.6 1.7s3.5 2.6 4.6 4.5 1.9 4 2.3 6.5c.4 2.4.6 5 .6 7.7v36.9H78V64.4c0-3.8-.5-7.3-1.5-10.6zM461.2 39.1h16.3l-28.1 33.5 27.7 33.1h-16.3l-27.7-33.1z"/><path fill="#e12e56" d="M509.3 39.1H493l28.1 33.5-27.7 33.1h16.3l27.7-33.1z"/></svg>